<svg xmlns="http://www.w3.org/2000/svg" fill="none" viewBox="0 0 1312 355" class="w-full" width="100%" alt="Logo" aria-label="Cape Logo"><path stroke="#F5F5F5" d="m580.647 242.178-.005.009c-6.086 9.553-12.129 18.338-20.741 24.747-8.595 6.396-19.787 10.452-36.214 10.452H406.849c-22.17 0-40.301-5.968-52.881-16.598-12.571-10.622-19.643-25.935-19.643-44.731v-31.262c0-16.689 7.053-30.174 19.618-39.502 12.581-9.339 30.722-14.534 52.906-14.534h166.216c2.364 0 4.331-.729 5.706-2.149 1.373-1.419 2.097-3.467 2.097-5.993 0-7.82-3.657-14.222-10.173-18.649-6.498-4.416-15.822-6.86-27.187-6.86H384.941c-11.022 0-19.927-3.44-26.075-9.538s-9.589-14.906-9.589-25.74V46.699h204.315c27.721 0 50.278 8.219 65.9 22.963 15.62 14.74 24.359 36.05 24.359 62.334v145.39h-52.807l5.813-34.151v-.002c.185-1.108.104-2.277-.404-3.191-.529-.951-1.485-1.56-2.871-1.56h-6.955c-2.306 0-4.53 1.524-5.98 3.696ZM730.708 354.5h-62.907V46.699h52.807L714.8 80.826l-.002.012c-.371 1.681-.009 2.9.734 3.694.723.774 1.736 1.07 2.538 1.07h6.955a6.59 6.59 0 0 0 5.268-2.63l.012-.016.01-.016c6.074-9.535 12.9-18.588 22.297-25.262 9.385-6.665 21.366-10.98 37.787-10.98h106.407c28.244 0 51.15 8.221 66.989 22.966 15.835 14.74 24.66 36.049 24.66 62.332v58.356c0 26.807-8.827 48.551-24.664 63.595-15.84 15.047-38.743 23.439-66.985 23.439H790.399c-16.432 0-28.417-3.885-37.8-10.12-9.388-6.237-16.209-14.85-22.277-24.374q-.223-.391-.433-.769c-.489-.878-.936-1.68-1.435-2.286-.682-.827-1.509-1.355-2.733-1.355h-7.303c-1.154 0-2.183.388-2.865 1.227-.678.834-.945 2.028-.761 3.504l.002.008zm342.942-225.283c0 1.765.26 3.419 1.45 4.609 1.19 1.185 3.18 1.796 6.35 1.796h142.92c7.54 0 13.74-1.663 18.06-4.647 4.34-2.995 6.78-7.312 6.78-12.526 0-5.884-2.42-10.636-6.76-13.903-4.33-3.255-10.53-5.007-18.08-5.007h-113.71c-10.34 0-19.58 2.802-26.25 7.919-6.68 5.126-10.76 12.564-10.76 21.759Zm221.85 148.169h-194.57c-25.98 0-48.54-8.473-64.6-23.571-16.06-15.095-25.66-36.842-25.66-63.463v-58.356c0-26.286 8.65-47.595 24.23-62.335 15.57-14.743 38.13-22.962 66.03-22.962h142.57c19.73 0 36.73 5.618 48.79 15.774 12.06 10.148 19.21 24.856 19.21 43.124v23.273c0 17.757-6.55 32.201-18.3 42.214-11.75 10.021-28.75 15.642-49.7 15.642h-162.05c-1.66 0-3.6.551-5.13 1.757-1.55 1.218-2.67 3.097-2.67 5.69 0 9.08 5.44 16.511 13.22 21.65s17.96 8.028 27.62 8.028h146.05c10.84 0 19.57 3.353 25.59 9.363s9.37 14.73 9.37 25.568zm-564.716-84.255c0 6.732 2.488 12.259 6.955 16.097 4.46 3.831 10.845 5.939 18.582 5.939h123.446c14.189 0 25.802-4.464 33.868-12.609 8.065-8.145 12.533-19.918 12.533-34.437v-16.326c0-13.144-4.478-23.879-12.549-31.325-8.067-7.442-19.674-11.552-33.852-11.552H754.583c-7.242 0-13.204 2.384-17.355 6.665-4.15 4.278-6.444 10.404-6.444 17.803zm-333.129 7.642c0 6.557 2.4 11.912 6.739 15.62 4.33 3.701 10.541 5.721 18.103 5.721H538.64c13.288 0 24.102-3.23 31.605-9.138 7.517-5.919 11.666-14.49 11.666-25.055 0-2.509-.627-4.63-1.851-6.134-1.233-1.517-3.033-2.355-5.256-2.355H422.497c-7.562 0-13.773 2.02-18.103 5.721-4.339 3.708-6.739 9.063-6.739 15.62Zm-168.846 76.613H93.54c-28.757 0-52.006-8.91-68.064-24.821S.5 213.692.5 185.489v-93.44c0-28.029 8.832-50.905 24.673-66.773C41.015 9.41 63.916.5 92.15.5h136.659c25.766 0 46.749 10.014 61.298 27.135 14.471 17.029 22.606 41.124 22.7 69.473h-62.985c-.262-18.49-15.049-34.389-38.052-34.389H109.884c-14.192 0-25.806 4.553-33.871 12.83-8.064 8.275-12.53 20.22-12.53 34.911v58.009c0 14.346 4.468 26.033 12.578 34.134s19.809 12.564 34.171 12.564H211.77c11.572 0 21.091-3.416 27.722-9.51 6.53-6.001 10.215-14.559 10.33-24.878h62.985c-.09 29.557-8.228 53.654-22.697 70.381-14.544 16.813-35.525 26.226-61.301 26.226Z"></path></svg>